<?xml version="1.0" encoding="UTF-8" standalone="no"?>
<!DOCTYPE svg PUBLIC "-//W3C//DTD SVG 1.1//EN"
 "http://www.w3.org/Graphics/SVG/1.1/DTD/svg11.dtd">
<!-- Generated by graphviz version 2.43.0 (0)
 -->
<!-- Title: deps Pages: 1 -->
<svg width="512pt" height="206pt"
 viewBox="0.00 0.00 512.00 206.00" xmlns="http://www.w3.org/2000/svg" xmlns:xlink="http://www.w3.org/1999/xlink">
<g id="graph0" class="graph" transform="scale(1 1) rotate(0) translate(4 202)">
<title>deps</title>
<polygon fill="white" stroke="transparent" points="-4,4 -4,-202 508,-202 508,4 -4,4"/>
<!-- gno.land/p/moul/grants/v0 -->
<g id="node1" class="node">
<title>gno.land/p/moul/grants/v0</title>
<polygon fill="#cfe2ff" stroke="black" points="201,-117 0,-117 0,-81 201,-81 201,-117"/>
<text text-anchor="middle" x="100.5" y="-95.3" font-family="sans-serif" font-size="14.00">gno.land/p/moul/grants/v0</text>
</g>
<!-- gno.land/p/moul/kit/ui/v0 -->
<g id="node2" class="node">
<title>gno.land/p/moul/kit/ui/v0</title>
<polygon fill="none" stroke="black" points="466,-198 275,-198 275,-162 466,-162 466,-198"/>
<text text-anchor="middle" x="370.5" y="-176.3" font-family="sans-serif" font-size="14.00">gno.land/p/moul/kit/ui/v0</text>
</g>
<!-- gno.land/p/moul/grants/v0&#45;&gt;gno.land/p/moul/kit/ui/v0 -->
<g id="edge1" class="edge">
<title>gno.land/p/moul/grants/v0&#45;&gt;gno.land/p/moul/kit/ui/v0</title>
<path fill="none" stroke="black" d="M141.45,-117.1C168.09,-128.63 204.12,-143.18 237,-153 246.02,-155.69 255.46,-158.2 264.97,-160.52"/>
<polygon fill="black" stroke="black" points="264.35,-163.97 274.89,-162.87 265.96,-157.16 264.35,-163.97"/>
</g>
<!-- gno.land/p/moul/md/v0 -->
<g id="node3" class="node">
<title>gno.land/p/moul/md/v0</title>
<polygon fill="none" stroke="black" points="460,-144 281,-144 281,-108 460,-108 460,-144"/>
<text text-anchor="middle" x="370.5" y="-122.3" font-family="sans-serif" font-size="14.00">gno.land/p/moul/md/v0</text>
</g>
<!-- gno.land/p/moul/grants/v0&#45;&gt;gno.land/p/moul/md/v0 -->
<g id="edge2" class="edge">
<title>gno.land/p/moul/grants/v0&#45;&gt;gno.land/p/moul/md/v0</title>
<path fill="none" stroke="black" d="M201.29,-109.05C223.88,-111.33 247.85,-113.74 270.41,-116.02"/>
<polygon fill="black" stroke="black" points="270.36,-119.53 280.66,-117.05 271.06,-112.56 270.36,-119.53"/>
</g>
<!-- gno.land/p/nt/avl/v0 -->
<g id="node4" class="node">
<title>gno.land/p/nt/avl/v0</title>
<polygon fill="none" stroke="black" points="448.5,-90 292.5,-90 292.5,-54 448.5,-54 448.5,-90"/>
<text text-anchor="middle" x="370.5" y="-68.3" font-family="sans-serif" font-size="14.00">gno.land/p/nt/avl/v0</text>
</g>
<!-- gno.land/p/moul/grants/v0&#45;&gt;gno.land/p/nt/avl/v0 -->
<g id="edge3" class="edge">
<title>gno.land/p/moul/grants/v0&#45;&gt;gno.land/p/nt/avl/v0</title>
<path fill="none" stroke="black" d="M201.29,-88.95C227.83,-86.27 256.29,-83.41 282.11,-80.8"/>
<polygon fill="black" stroke="black" points="282.64,-84.27 292.24,-79.78 281.94,-77.3 282.64,-84.27"/>
</g>
<!-- gno.land/p/nt/markdown/sanitize/v0 -->
<g id="node5" class="node">
<title>gno.land/p/nt/markdown/sanitize/v0</title>
<polygon fill="none" stroke="black" points="504,-36 237,-36 237,0 504,0 504,-36"/>
<text text-anchor="middle" x="370.5" y="-14.3" font-family="sans-serif" font-size="14.00">gno.land/p/nt/markdown/sanitize/v0</text>
</g>
<!-- gno.land/p/moul/grants/v0&#45;&gt;gno.land/p/nt/markdown/sanitize/v0 -->
<g id="edge4" class="edge">
<title>gno.land/p/moul/grants/v0&#45;&gt;gno.land/p/nt/markdown/sanitize/v0</title>
<path fill="none" stroke="black" d="M141.45,-80.9C168.09,-69.37 204.12,-54.82 237,-45 244.76,-42.68 252.83,-40.5 260.99,-38.46"/>
<polygon fill="black" stroke="black" points="262.08,-41.8 270.97,-36.04 260.43,-35 262.08,-41.8"/>
</g>
</g>
</svg>
