<?xml version="1.0" encoding="UTF-8" standalone="no"?>
<!DOCTYPE svg PUBLIC "-//W3C//DTD SVG 1.1//EN"
 "http://www.w3.org/Graphics/SVG/1.1/DTD/svg11.dtd">
<!-- Generated by graphviz version 2.43.0 (0)
 -->
<!-- Title: deps Pages: 1 -->
<svg width="533pt" height="260pt"
 viewBox="0.00 0.00 533.00 260.00" xmlns="http://www.w3.org/2000/svg" xmlns:xlink="http://www.w3.org/1999/xlink">
<g id="graph0" class="graph" transform="scale(1 1) rotate(0) translate(4 256)">
<title>deps</title>
<polygon fill="white" stroke="transparent" points="-4,4 -4,-256 529,-256 529,4 -4,4"/>
<!-- gno.land/r/moul/x/pairs/aaabbb/v0 -->
<g id="node1" class="node">
<title>gno.land/r/moul/x/pairs/aaabbb/v0</title>
<polygon fill="#cfe2ff" stroke="black" points="257,-144 0,-144 0,-108 257,-108 257,-144"/>
<text text-anchor="middle" x="128.5" y="-122.3" font-family="sans-serif" font-size="14.00">gno.land/r/moul/x/pairs/aaabbb/v0</text>
</g>
<!-- gno.land/p/moul/x/pair/v0 -->
<g id="node2" class="node">
<title>gno.land/p/moul/x/pair/v0</title>
<polygon fill="none" stroke="black" points="507,-252 311,-252 311,-216 507,-216 507,-252"/>
<text text-anchor="middle" x="409" y="-230.3" font-family="sans-serif" font-size="14.00">gno.land/p/moul/x/pair/v0</text>
</g>
<!-- gno.land/r/moul/x/pairs/aaabbb/v0&#45;&gt;gno.land/p/moul/x/pair/v0 -->
<g id="edge1" class="edge">
<title>gno.land/r/moul/x/pairs/aaabbb/v0&#45;&gt;gno.land/p/moul/x/pair/v0</title>
<path fill="none" stroke="black" d="M160.51,-144.05C192.71,-162.15 245.01,-189.74 293,-207 298.95,-209.14 305.14,-211.16 311.42,-213.05"/>
<polygon fill="black" stroke="black" points="310.76,-216.5 321.34,-215.92 312.71,-209.78 310.76,-216.5"/>
</g>
<!-- gno.land/r/moul/x/pairreg/v0 -->
<g id="node3" class="node">
<title>gno.land/r/moul/x/pairreg/v0</title>
<polygon fill="none" stroke="black" points="516.5,-198 301.5,-198 301.5,-162 516.5,-162 516.5,-198"/>
<text text-anchor="middle" x="409" y="-176.3" font-family="sans-serif" font-size="14.00">gno.land/r/moul/x/pairreg/v0</text>
</g>
<!-- gno.land/r/moul/x/pairs/aaabbb/v0&#45;&gt;gno.land/r/moul/x/pairreg/v0 -->
<g id="edge2" class="edge">
<title>gno.land/r/moul/x/pairs/aaabbb/v0&#45;&gt;gno.land/r/moul/x/pairreg/v0</title>
<path fill="none" stroke="black" d="M222.62,-144.06C249.1,-149.19 278.09,-154.81 305.11,-160.05"/>
<polygon fill="black" stroke="black" points="304.48,-163.49 314.96,-161.96 305.81,-156.62 304.48,-163.49"/>
</g>
<!-- gno.land/r/moul/x/pairs/aaa/v0 -->
<g id="node4" class="node">
<title>gno.land/r/moul/x/pairs/aaa/v0</title>
<polygon fill="none" stroke="black" points="524,-144 294,-144 294,-108 524,-108 524,-144"/>
<text text-anchor="middle" x="409" y="-122.3" font-family="sans-serif" font-size="14.00">gno.land/r/moul/x/pairs/aaa/v0</text>
</g>
<!-- gno.land/r/moul/x/pairs/aaabbb/v0&#45;&gt;gno.land/r/moul/x/pairs/aaa/v0 -->
<g id="edge3" class="edge">
<title>gno.land/r/moul/x/pairs/aaabbb/v0&#45;&gt;gno.land/r/moul/x/pairs/aaa/v0</title>
<path fill="none" stroke="black" d="M257.34,-126C266.07,-126 274.87,-126 283.59,-126"/>
<polygon fill="black" stroke="black" points="283.78,-129.5 293.78,-126 283.78,-122.5 283.78,-129.5"/>
</g>
<!-- gno.land/r/moul/x/pairs/bbb/v0 -->
<g id="node5" class="node">
<title>gno.land/r/moul/x/pairs/bbb/v0</title>
<polygon fill="none" stroke="black" points="525,-90 293,-90 293,-54 525,-54 525,-90"/>
<text text-anchor="middle" x="409" y="-68.3" font-family="sans-serif" font-size="14.00">gno.land/r/moul/x/pairs/bbb/v0</text>
</g>
<!-- gno.land/r/moul/x/pairs/aaabbb/v0&#45;&gt;gno.land/r/moul/x/pairs/bbb/v0 -->
<g id="edge4" class="edge">
<title>gno.land/r/moul/x/pairs/aaabbb/v0&#45;&gt;gno.land/r/moul/x/pairs/bbb/v0</title>
<path fill="none" stroke="black" d="M222.62,-107.94C249.1,-102.81 278.09,-97.19 305.11,-91.95"/>
<polygon fill="black" stroke="black" points="305.81,-95.38 314.96,-90.04 304.48,-88.51 305.81,-95.38"/>
</g>
<!-- gno.land/r/nt/grc20reg/v0 -->
<g id="node6" class="node">
<title>gno.land/r/nt/grc20reg/v0</title>
<polygon fill="none" stroke="black" points="506.5,-36 311.5,-36 311.5,0 506.5,0 506.5,-36"/>
<text text-anchor="middle" x="409" y="-14.3" font-family="sans-serif" font-size="14.00">gno.land/r/nt/grc20reg/v0</text>
</g>
<!-- gno.land/r/moul/x/pairs/aaabbb/v0&#45;&gt;gno.land/r/nt/grc20reg/v0 -->
<g id="edge5" class="edge">
<title>gno.land/r/moul/x/pairs/aaabbb/v0&#45;&gt;gno.land/r/nt/grc20reg/v0</title>
<path fill="none" stroke="black" d="M160.51,-107.95C192.71,-89.85 245.01,-62.26 293,-45 298.95,-42.86 305.14,-40.84 311.42,-38.95"/>
<polygon fill="black" stroke="black" points="312.71,-42.22 321.34,-36.08 310.76,-35.5 312.71,-42.22"/>
</g>
</g>
</svg>
