<?xml version="1.0" encoding="UTF-8" standalone="no"?>
<!DOCTYPE svg PUBLIC "-//W3C//DTD SVG 1.1//EN"
 "http://www.w3.org/Graphics/SVG/1.1/DTD/svg11.dtd">
<!-- Generated by graphviz version 2.43.0 (0)
 -->
<!-- Title: deps Pages: 1 -->
<svg width="440pt" height="206pt"
 viewBox="0.00 0.00 440.00 206.00" xmlns="http://www.w3.org/2000/svg" xmlns:xlink="http://www.w3.org/1999/xlink">
<g id="graph0" class="graph" transform="scale(1 1) rotate(0) translate(4 202)">
<title>deps</title>
<polygon fill="white" stroke="transparent" points="-4,4 -4,-202 436,-202 436,4 -4,4"/>
<!-- gno.land/r/moul/x/amm/v0 -->
<g id="node1" class="node">
<title>gno.land/r/moul/x/amm/v0</title>
<polygon fill="#cfe2ff" stroke="black" points="201,-117 0,-117 0,-81 201,-81 201,-117"/>
<text text-anchor="middle" x="100.5" y="-95.3" font-family="sans-serif" font-size="14.00">gno.land/r/moul/x/amm/v0</text>
</g>
<!-- gno.land/p/nt/avl/v0 -->
<g id="node2" class="node">
<title>gno.land/p/nt/avl/v0</title>
<polygon fill="none" stroke="black" points="412.5,-198 256.5,-198 256.5,-162 412.5,-162 412.5,-198"/>
<text text-anchor="middle" x="334.5" y="-176.3" font-family="sans-serif" font-size="14.00">gno.land/p/nt/avl/v0</text>
</g>
<!-- gno.land/r/moul/x/amm/v0&#45;&gt;gno.land/p/nt/avl/v0 -->
<g id="edge1" class="edge">
<title>gno.land/r/moul/x/amm/v0&#45;&gt;gno.land/p/nt/avl/v0</title>
<path fill="none" stroke="black" d="M143.49,-117.07C170.03,-128.17 205.21,-142.25 237,-153 243,-155.03 249.25,-157.03 255.55,-158.96"/>
<polygon fill="black" stroke="black" points="254.89,-162.42 265.47,-161.95 256.9,-155.71 254.89,-162.42"/>
</g>
<!-- gno.land/p/nt/grc20/v0 -->
<g id="node3" class="node">
<title>gno.land/p/nt/grc20/v0</title>
<polygon fill="none" stroke="black" points="422.5,-144 246.5,-144 246.5,-108 422.5,-108 422.5,-144"/>
<text text-anchor="middle" x="334.5" y="-122.3" font-family="sans-serif" font-size="14.00">gno.land/p/nt/grc20/v0</text>
</g>
<!-- gno.land/r/moul/x/amm/v0&#45;&gt;gno.land/p/nt/grc20/v0 -->
<g id="edge2" class="edge">
<title>gno.land/r/moul/x/amm/v0&#45;&gt;gno.land/p/nt/grc20/v0</title>
<path fill="none" stroke="black" d="M201.24,-110.61C212.82,-111.96 224.63,-113.33 236.19,-114.67"/>
<polygon fill="black" stroke="black" points="235.93,-118.17 246.27,-115.85 236.74,-111.22 235.93,-118.17"/>
</g>
<!-- gno.land/p/nt/ufmt/v0 -->
<g id="node4" class="node">
<title>gno.land/p/nt/ufmt/v0</title>
<polygon fill="none" stroke="black" points="419,-90 250,-90 250,-54 419,-54 419,-90"/>
<text text-anchor="middle" x="334.5" y="-68.3" font-family="sans-serif" font-size="14.00">gno.land/p/nt/ufmt/v0</text>
</g>
<!-- gno.land/r/moul/x/amm/v0&#45;&gt;gno.land/p/nt/ufmt/v0 -->
<g id="edge3" class="edge">
<title>gno.land/r/moul/x/amm/v0&#45;&gt;gno.land/p/nt/ufmt/v0</title>
<path fill="none" stroke="black" d="M201.24,-87.39C214.03,-85.9 227.09,-84.38 239.78,-82.91"/>
<polygon fill="black" stroke="black" points="240.34,-86.37 249.87,-81.73 239.53,-79.41 240.34,-86.37"/>
</g>
<!-- gno.land/r/nt/grc20reg/v0 -->
<g id="node5" class="node">
<title>gno.land/r/nt/grc20reg/v0</title>
<polygon fill="none" stroke="black" points="432,-36 237,-36 237,0 432,0 432,-36"/>
<text text-anchor="middle" x="334.5" y="-14.3" font-family="sans-serif" font-size="14.00">gno.land/r/nt/grc20reg/v0</text>
</g>
<!-- gno.land/r/moul/x/amm/v0&#45;&gt;gno.land/r/nt/grc20reg/v0 -->
<g id="edge4" class="edge">
<title>gno.land/r/moul/x/amm/v0&#45;&gt;gno.land/r/nt/grc20reg/v0</title>
<path fill="none" stroke="black" d="M143.49,-80.93C170.03,-69.83 205.21,-55.75 237,-45 243,-42.97 249.25,-40.97 255.55,-39.04"/>
<polygon fill="black" stroke="black" points="256.9,-42.29 265.47,-36.05 254.89,-35.58 256.9,-42.29"/>
</g>
</g>
</svg>
