<?xml version="1.0" encoding="UTF-8" standalone="no"?>
<!DOCTYPE svg PUBLIC "-//W3C//DTD SVG 1.1//EN"
 "http://www.w3.org/Graphics/SVG/1.1/DTD/svg11.dtd">
<!-- Generated by graphviz version 2.43.0 (0)
 -->
<!-- Title: deps Pages: 1 -->
<svg width="489pt" height="98pt"
 viewBox="0.00 0.00 489.00 98.00" xmlns="http://www.w3.org/2000/svg" xmlns:xlink="http://www.w3.org/1999/xlink">
<g id="graph0" class="graph" transform="scale(1 1) rotate(0) translate(4 94)">
<title>deps</title>
<polygon fill="white" stroke="transparent" points="-4,4 -4,-94 485,-94 485,4 -4,4"/>
<!-- gno.land/r/moul/x/daily/reactions/v0 -->
<g id="node1" class="node">
<title>gno.land/r/moul/x/daily/reactions/v0</title>
<polygon fill="#cfe2ff" stroke="black" points="266,-63 0,-63 0,-27 266,-27 266,-63"/>
<text text-anchor="middle" x="133" y="-41.3" font-family="sans-serif" font-size="14.00">gno.land/r/moul/x/daily/reactions/v0</text>
</g>
<!-- gno.land/p/moul/md/v0 -->
<g id="node2" class="node">
<title>gno.land/p/moul/md/v0</title>
<polygon fill="none" stroke="black" points="481,-90 302,-90 302,-54 481,-54 481,-90"/>
<text text-anchor="middle" x="391.5" y="-68.3" font-family="sans-serif" font-size="14.00">gno.land/p/moul/md/v0</text>
</g>
<!-- gno.land/r/moul/x/daily/reactions/v0&#45;&gt;gno.land/p/moul/md/v0 -->
<g id="edge1" class="edge">
<title>gno.land/r/moul/x/daily/reactions/v0&#45;&gt;gno.land/p/moul/md/v0</title>
<path fill="none" stroke="black" d="M266.01,-58.9C274.65,-59.8 283.26,-60.71 291.7,-61.6"/>
<polygon fill="black" stroke="black" points="291.58,-65.11 301.89,-62.67 292.31,-58.15 291.58,-65.11"/>
</g>
<!-- gno.land/p/nt/avl/v0 -->
<g id="node3" class="node">
<title>gno.land/p/nt/avl/v0</title>
<polygon fill="none" stroke="black" points="469.5,-36 313.5,-36 313.5,0 469.5,0 469.5,-36"/>
<text text-anchor="middle" x="391.5" y="-14.3" font-family="sans-serif" font-size="14.00">gno.land/p/nt/avl/v0</text>
</g>
<!-- gno.land/r/moul/x/daily/reactions/v0&#45;&gt;gno.land/p/nt/avl/v0 -->
<g id="edge2" class="edge">
<title>gno.land/r/moul/x/daily/reactions/v0&#45;&gt;gno.land/p/nt/avl/v0</title>
<path fill="none" stroke="black" d="M266.01,-31.1C278.67,-29.77 291.28,-28.44 303.34,-27.17"/>
<polygon fill="black" stroke="black" points="303.76,-30.65 313.34,-26.12 303.03,-23.69 303.76,-30.65"/>
</g>
</g>
</svg>
