<?xml version="1.0" encoding="UTF-8" standalone="no"?>
<!DOCTYPE svg PUBLIC "-//W3C//DTD SVG 1.1//EN"
 "http://www.w3.org/Graphics/SVG/1.1/DTD/svg11.dtd">
<!-- Generated by graphviz version 2.43.0 (0)
 -->
<!-- Title: deps Pages: 1 -->
<svg width="603pt" height="476pt"
 viewBox="0.00 0.00 603.00 476.00" xmlns="http://www.w3.org/2000/svg" xmlns:xlink="http://www.w3.org/1999/xlink">
<g id="graph0" class="graph" transform="scale(1 1) rotate(0) translate(4 472)">
<title>deps</title>
<polygon fill="white" stroke="transparent" points="-4,4 -4,-472 599,-472 599,4 -4,4"/>
<!-- gno.land/r/moul/x/allinone/textlab/v0 -->
<g id="node1" class="node">
<title>gno.land/r/moul/x/allinone/textlab/v0</title>
<polygon fill="#cfe2ff" stroke="black" points="272,-252 0,-252 0,-216 272,-216 272,-252"/>
<text text-anchor="middle" x="136" y="-230.3" font-family="sans-serif" font-size="14.00">gno.land/r/moul/x/allinone/textlab/v0</text>
</g>
<!-- gno.land/p/moul/kit/ui/v0 -->
<g id="node2" class="node">
<title>gno.land/p/moul/kit/ui/v0</title>
<polygon fill="none" stroke="black" points="547,-468 356,-468 356,-432 547,-432 547,-468"/>
<text text-anchor="middle" x="451.5" y="-446.3" font-family="sans-serif" font-size="14.00">gno.land/p/moul/kit/ui/v0</text>
</g>
<!-- gno.land/r/moul/x/allinone/textlab/v0&#45;&gt;gno.land/p/moul/kit/ui/v0 -->
<g id="edge1" class="edge">
<title>gno.land/r/moul/x/allinone/textlab/v0&#45;&gt;gno.land/p/moul/kit/ui/v0</title>
<path fill="none" stroke="black" d="M147.59,-252.11C171.08,-290.51 231.59,-380.13 308,-423 319.75,-429.59 332.82,-434.61 346.13,-438.42"/>
<polygon fill="black" stroke="black" points="345.29,-441.82 355.86,-440.99 347.08,-435.05 345.29,-441.82"/>
</g>
<!-- gno.land/p/moul/md/v0 -->
<g id="node3" class="node">
<title>gno.land/p/moul/md/v0</title>
<polygon fill="none" stroke="black" points="541,-414 362,-414 362,-378 541,-378 541,-414"/>
<text text-anchor="middle" x="451.5" y="-392.3" font-family="sans-serif" font-size="14.00">gno.land/p/moul/md/v0</text>
</g>
<!-- gno.land/r/moul/x/allinone/textlab/v0&#45;&gt;gno.land/p/moul/md/v0 -->
<g id="edge2" class="edge">
<title>gno.land/r/moul/x/allinone/textlab/v0&#45;&gt;gno.land/p/moul/md/v0</title>
<path fill="none" stroke="black" d="M154.01,-252.21C182.72,-281.77 243.99,-339.81 308,-369 321.72,-375.26 336.82,-380.06 351.9,-383.75"/>
<polygon fill="black" stroke="black" points="351.26,-387.2 361.79,-386.02 352.83,-380.38 351.26,-387.2"/>
</g>
<!-- gno.land/p/moul/realmpath/v0 -->
<g id="node4" class="node">
<title>gno.land/p/moul/realmpath/v0</title>
<polygon fill="none" stroke="black" points="565,-360 338,-360 338,-324 565,-324 565,-360"/>
<text text-anchor="middle" x="451.5" y="-338.3" font-family="sans-serif" font-size="14.00">gno.land/p/moul/realmpath/v0</text>
</g>
<!-- gno.land/r/moul/x/allinone/textlab/v0&#45;&gt;gno.land/p/moul/realmpath/v0 -->
<g id="edge3" class="edge">
<title>gno.land/r/moul/x/allinone/textlab/v0&#45;&gt;gno.land/p/moul/realmpath/v0</title>
<path fill="none" stroke="black" d="M168.77,-252.08C202.36,-270.46 257.4,-298.52 308,-315 315.24,-317.36 322.76,-319.53 330.38,-321.54"/>
<polygon fill="black" stroke="black" points="329.54,-324.94 340.09,-323.99 331.25,-318.15 329.54,-324.94"/>
</g>
<!-- gno.land/p/moul/x/daily/levenshtein/v0 -->
<g id="node5" class="node">
<title>gno.land/p/moul/x/daily/levenshtein/v0</title>
<polygon fill="none" stroke="black" points="595,-306 308,-306 308,-270 595,-270 595,-306"/>
<text text-anchor="middle" x="451.5" y="-284.3" font-family="sans-serif" font-size="14.00">gno.land/p/moul/x/daily/levenshtein/v0</text>
</g>
<!-- gno.land/r/moul/x/allinone/textlab/v0&#45;&gt;gno.land/p/moul/x/daily/levenshtein/v0 -->
<g id="edge4" class="edge">
<title>gno.land/r/moul/x/allinone/textlab/v0&#45;&gt;gno.land/p/moul/x/daily/levenshtein/v0</title>
<path fill="none" stroke="black" d="M241.83,-252.06C272.02,-257.26 305.12,-262.96 335.87,-268.26"/>
<polygon fill="black" stroke="black" points="335.32,-271.71 345.77,-269.96 336.51,-264.81 335.32,-271.71"/>
</g>
<!-- gno.land/p/moul/x/daily/piglatin/v0 -->
<g id="node6" class="node">
<title>gno.land/p/moul/x/daily/piglatin/v0</title>
<polygon fill="none" stroke="black" points="580.5,-252 322.5,-252 322.5,-216 580.5,-216 580.5,-252"/>
<text text-anchor="middle" x="451.5" y="-230.3" font-family="sans-serif" font-size="14.00">gno.land/p/moul/x/daily/piglatin/v0</text>
</g>
<!-- gno.land/r/moul/x/allinone/textlab/v0&#45;&gt;gno.land/p/moul/x/daily/piglatin/v0 -->
<g id="edge5" class="edge">
<title>gno.land/r/moul/x/allinone/textlab/v0&#45;&gt;gno.land/p/moul/x/daily/piglatin/v0</title>
<path fill="none" stroke="black" d="M272.23,-234C285.43,-234 298.85,-234 312.08,-234"/>
<polygon fill="black" stroke="black" points="312.16,-237.5 322.16,-234 312.16,-230.5 312.16,-237.5"/>
</g>
<!-- gno.land/p/moul/x/daily/romannum/v0 -->
<g id="node7" class="node">
<title>gno.land/p/moul/x/daily/romannum/v0</title>
<polygon fill="none" stroke="black" points="592.5,-198 310.5,-198 310.5,-162 592.5,-162 592.5,-198"/>
<text text-anchor="middle" x="451.5" y="-176.3" font-family="sans-serif" font-size="14.00">gno.land/p/moul/x/daily/romannum/v0</text>
</g>
<!-- gno.land/r/moul/x/allinone/textlab/v0&#45;&gt;gno.land/p/moul/x/daily/romannum/v0 -->
<g id="edge6" class="edge">
<title>gno.land/r/moul/x/allinone/textlab/v0&#45;&gt;gno.land/p/moul/x/daily/romannum/v0</title>
<path fill="none" stroke="black" d="M241.83,-215.94C272.02,-210.74 305.12,-205.04 335.87,-199.74"/>
<polygon fill="black" stroke="black" points="336.51,-203.19 345.77,-198.04 335.32,-196.29 336.51,-203.19"/>
</g>
<!-- gno.land/p/moul/x/daily/rot13/v0 -->
<g id="node8" class="node">
<title>gno.land/p/moul/x/daily/rot13/v0</title>
<polygon fill="none" stroke="black" points="573,-144 330,-144 330,-108 573,-108 573,-144"/>
<text text-anchor="middle" x="451.5" y="-122.3" font-family="sans-serif" font-size="14.00">gno.land/p/moul/x/daily/rot13/v0</text>
</g>
<!-- gno.land/r/moul/x/allinone/textlab/v0&#45;&gt;gno.land/p/moul/x/daily/rot13/v0 -->
<g id="edge7" class="edge">
<title>gno.land/r/moul/x/allinone/textlab/v0&#45;&gt;gno.land/p/moul/x/daily/rot13/v0</title>
<path fill="none" stroke="black" d="M168.77,-215.92C202.36,-197.54 257.4,-169.48 308,-153 315.24,-150.64 322.76,-148.47 330.38,-146.46"/>
<polygon fill="black" stroke="black" points="331.25,-149.85 340.09,-144.01 329.54,-143.06 331.25,-149.85"/>
</g>
<!-- gno.land/p/moul/x/daily/soundex/v0 -->
<g id="node9" class="node">
<title>gno.land/p/moul/x/daily/soundex/v0</title>
<polygon fill="none" stroke="black" points="584.5,-90 318.5,-90 318.5,-54 584.5,-54 584.5,-90"/>
<text text-anchor="middle" x="451.5" y="-68.3" font-family="sans-serif" font-size="14.00">gno.land/p/moul/x/daily/soundex/v0</text>
</g>
<!-- gno.land/r/moul/x/allinone/textlab/v0&#45;&gt;gno.land/p/moul/x/daily/soundex/v0 -->
<g id="edge8" class="edge">
<title>gno.land/r/moul/x/allinone/textlab/v0&#45;&gt;gno.land/p/moul/x/daily/soundex/v0</title>
<path fill="none" stroke="black" d="M154.01,-215.79C182.72,-186.23 243.99,-128.19 308,-99 312.42,-96.98 316.99,-95.12 321.65,-93.39"/>
<polygon fill="black" stroke="black" points="323.03,-96.62 331.33,-90.04 320.74,-90 323.03,-96.62"/>
</g>
<!-- gno.land/r/moul/config/v1 -->
<g id="node10" class="node">
<title>gno.land/r/moul/config/v1</title>
<polygon fill="none" stroke="black" points="549.5,-36 353.5,-36 353.5,0 549.5,0 549.5,-36"/>
<text text-anchor="middle" x="451.5" y="-14.3" font-family="sans-serif" font-size="14.00">gno.land/r/moul/config/v1</text>
</g>
<!-- gno.land/r/moul/x/allinone/textlab/v0&#45;&gt;gno.land/r/moul/config/v1 -->
<g id="edge9" class="edge">
<title>gno.land/r/moul/x/allinone/textlab/v0&#45;&gt;gno.land/r/moul/config/v1</title>
<path fill="none" stroke="black" d="M147.59,-215.89C171.08,-177.49 231.59,-87.87 308,-45 318.92,-38.88 330.97,-34.11 343.3,-30.41"/>
<polygon fill="black" stroke="black" points="344.53,-33.7 353.23,-27.66 342.66,-26.95 344.53,-33.7"/>
</g>
</g>
</svg>
