<?xml version="1.0" encoding="UTF-8" standalone="no"?>
<!DOCTYPE svg PUBLIC "-//W3C//DTD SVG 1.1//EN"
 "http://www.w3.org/Graphics/SVG/1.1/DTD/svg11.dtd">
<!-- Generated by graphviz version 2.43.0 (0)
 -->
<!-- Title: deps Pages: 1 -->
<svg width="516pt" height="98pt"
 viewBox="0.00 0.00 516.00 98.00" xmlns="http://www.w3.org/2000/svg" xmlns:xlink="http://www.w3.org/1999/xlink">
<g id="graph0" class="graph" transform="scale(1 1) rotate(0) translate(4 94)">
<title>deps</title>
<polygon fill="white" stroke="transparent" points="-4,4 -4,-94 512,-94 512,4 -4,4"/>
<!-- gno.land/r/moul/x/daily/tamagotchi/v1 -->
<g id="node1" class="node">
<title>gno.land/r/moul/x/daily/tamagotchi/v1</title>
<polygon fill="#cfe2ff" stroke="black" points="281,-63 0,-63 0,-27 281,-27 281,-63"/>
<text text-anchor="middle" x="140.5" y="-41.3" font-family="sans-serif" font-size="14.00">gno.land/r/moul/x/daily/tamagotchi/v1</text>
</g>
<!-- gno.land/p/moul/kit/ui/v0 -->
<g id="node2" class="node">
<title>gno.land/p/moul/kit/ui/v0</title>
<polygon fill="none" stroke="black" points="508,-90 317,-90 317,-54 508,-54 508,-90"/>
<text text-anchor="middle" x="412.5" y="-68.3" font-family="sans-serif" font-size="14.00">gno.land/p/moul/kit/ui/v0</text>
</g>
<!-- gno.land/r/moul/x/daily/tamagotchi/v1&#45;&gt;gno.land/p/moul/kit/ui/v0 -->
<g id="edge1" class="edge">
<title>gno.land/r/moul/x/daily/tamagotchi/v1&#45;&gt;gno.land/p/moul/kit/ui/v0</title>
<path fill="none" stroke="black" d="M281.25,-58.97C289.84,-59.83 298.42,-60.69 306.83,-61.53"/>
<polygon fill="black" stroke="black" points="306.69,-65.04 316.99,-62.55 307.39,-58.07 306.69,-65.04"/>
</g>
<!-- gno.land/p/nt/avl/v0 -->
<g id="node3" class="node">
<title>gno.land/p/nt/avl/v0</title>
<polygon fill="none" stroke="black" points="490.5,-36 334.5,-36 334.5,0 490.5,0 490.5,-36"/>
<text text-anchor="middle" x="412.5" y="-14.3" font-family="sans-serif" font-size="14.00">gno.land/p/nt/avl/v0</text>
</g>
<!-- gno.land/r/moul/x/daily/tamagotchi/v1&#45;&gt;gno.land/p/nt/avl/v0 -->
<g id="edge2" class="edge">
<title>gno.land/r/moul/x/daily/tamagotchi/v1&#45;&gt;gno.land/p/nt/avl/v0</title>
<path fill="none" stroke="black" d="M281.25,-31.03C295.81,-29.57 310.29,-28.12 324.03,-26.75"/>
<polygon fill="black" stroke="black" points="324.77,-30.19 334.37,-25.71 324.07,-23.23 324.77,-30.19"/>
</g>
</g>
</svg>
