<?xml version="1.0" encoding="UTF-8" standalone="no"?>
<!DOCTYPE svg PUBLIC "-//W3C//DTD SVG 1.1//EN"
 "http://www.w3.org/Graphics/SVG/1.1/DTD/svg11.dtd">
<!-- Generated by graphviz version 2.43.0 (0)
 -->
<!-- Title: deps Pages: 1 -->
<svg width="494pt" height="98pt"
 viewBox="0.00 0.00 494.00 98.00" xmlns="http://www.w3.org/2000/svg" xmlns:xlink="http://www.w3.org/1999/xlink">
<g id="graph0" class="graph" transform="scale(1 1) rotate(0) translate(4 94)">
<title>deps</title>
<polygon fill="white" stroke="transparent" points="-4,4 -4,-94 490,-94 490,4 -4,4"/>
<!-- gno.land/r/moul/demo/importdemo/v3 -->
<g id="node1" class="node">
<title>gno.land/r/moul/demo/importdemo/v3</title>
<polygon fill="#cfe2ff" stroke="black" points="281,-63 0,-63 0,-27 281,-27 281,-63"/>
<text text-anchor="middle" x="140.5" y="-41.3" font-family="sans-serif" font-size="14.00">gno.land/r/moul/demo/importdemo/v3</text>
</g>
<!-- gno.land/p/nt/avl/v0 -->
<g id="node2" class="node">
<title>gno.land/p/nt/avl/v0</title>
<polygon fill="none" stroke="black" points="479.5,-90 323.5,-90 323.5,-54 479.5,-54 479.5,-90"/>
<text text-anchor="middle" x="401.5" y="-68.3" font-family="sans-serif" font-size="14.00">gno.land/p/nt/avl/v0</text>
</g>
<!-- gno.land/r/moul/demo/importdemo/v3&#45;&gt;gno.land/p/nt/avl/v0 -->
<g id="edge1" class="edge">
<title>gno.land/r/moul/demo/importdemo/v3&#45;&gt;gno.land/p/nt/avl/v0</title>
<path fill="none" stroke="black" d="M281.23,-59.57C292.08,-60.7 302.82,-61.82 313.16,-62.9"/>
<polygon fill="black" stroke="black" points="313.05,-66.4 323.36,-63.96 313.78,-59.44 313.05,-66.4"/>
</g>
<!-- gno.land/p/nt/ufmt/v0 -->
<g id="node3" class="node">
<title>gno.land/p/nt/ufmt/v0</title>
<polygon fill="none" stroke="black" points="486,-36 317,-36 317,0 486,0 486,-36"/>
<text text-anchor="middle" x="401.5" y="-14.3" font-family="sans-serif" font-size="14.00">gno.land/p/nt/ufmt/v0</text>
</g>
<!-- gno.land/r/moul/demo/importdemo/v3&#45;&gt;gno.land/p/nt/ufmt/v0 -->
<g id="edge2" class="edge">
<title>gno.land/r/moul/demo/importdemo/v3&#45;&gt;gno.land/p/nt/ufmt/v0</title>
<path fill="none" stroke="black" d="M281.23,-30.43C289.9,-29.53 298.5,-28.63 306.88,-27.76"/>
<polygon fill="black" stroke="black" points="307.41,-31.22 316.99,-26.71 306.68,-24.26 307.41,-31.22"/>
</g>
</g>
</svg>
