<?xml version="1.0" encoding="UTF-8" standalone="no"?>
<!DOCTYPE svg PUBLIC "-//W3C//DTD SVG 1.1//EN"
 "http://www.w3.org/Graphics/SVG/1.1/DTD/svg11.dtd">
<!-- Generated by graphviz version 2.43.0 (0)
 -->
<!-- Title: deps Pages: 1 -->
<svg width="392pt" height="98pt"
 viewBox="0.00 0.00 392.00 98.00" xmlns="http://www.w3.org/2000/svg" xmlns:xlink="http://www.w3.org/1999/xlink">
<g id="graph0" class="graph" transform="scale(1 1) rotate(0) translate(4 94)">
<title>deps</title>
<polygon fill="white" stroke="transparent" points="-4,4 -4,-94 388,-94 388,4 -4,4"/>
<!-- gno.land/r/moul/gns/v1 -->
<g id="node1" class="node">
<title>gno.land/r/moul/gns/v1</title>
<polygon fill="#cfe2ff" stroke="black" points="179,-63 0,-63 0,-27 179,-27 179,-63"/>
<text text-anchor="middle" x="89.5" y="-41.3" font-family="sans-serif" font-size="14.00">gno.land/r/moul/gns/v1</text>
</g>
<!-- gno.land/p/nt/avl/v0 -->
<g id="node2" class="node">
<title>gno.land/p/nt/avl/v0</title>
<polygon fill="none" stroke="black" points="377.5,-90 221.5,-90 221.5,-54 377.5,-54 377.5,-90"/>
<text text-anchor="middle" x="299.5" y="-68.3" font-family="sans-serif" font-size="14.00">gno.land/p/nt/avl/v0</text>
</g>
<!-- gno.land/r/moul/gns/v1&#45;&gt;gno.land/p/nt/avl/v0 -->
<g id="edge1" class="edge">
<title>gno.land/r/moul/gns/v1&#45;&gt;gno.land/p/nt/avl/v0</title>
<path fill="none" stroke="black" d="M179.01,-56.49C189.65,-57.87 200.52,-59.28 211.14,-60.66"/>
<polygon fill="black" stroke="black" points="210.87,-64.15 221.24,-61.97 211.77,-57.21 210.87,-64.15"/>
</g>
<!-- gno.land/p/nt/ufmt/v0 -->
<g id="node3" class="node">
<title>gno.land/p/nt/ufmt/v0</title>
<polygon fill="none" stroke="black" points="384,-36 215,-36 215,0 384,0 384,-36"/>
<text text-anchor="middle" x="299.5" y="-14.3" font-family="sans-serif" font-size="14.00">gno.land/p/nt/ufmt/v0</text>
</g>
<!-- gno.land/r/moul/gns/v1&#45;&gt;gno.land/p/nt/ufmt/v0 -->
<g id="edge2" class="edge">
<title>gno.land/r/moul/gns/v1&#45;&gt;gno.land/p/nt/ufmt/v0</title>
<path fill="none" stroke="black" d="M179.01,-33.51C187.52,-32.41 196.16,-31.28 204.71,-30.17"/>
<polygon fill="black" stroke="black" points="205.23,-33.64 214.7,-28.88 204.33,-26.69 205.23,-33.64"/>
</g>
</g>
</svg>
